HIERARCHY
ROOT Hips
{
	OFFSET -0.031289 103.266464 0.443827
	CHANNELS 6 Xposition Yposition Zposition Xrotation Yrotation Zrotation 
	JOINT Spine
	{
		OFFSET -0.002448 12.777534 0.315252
		CHANNELS 3 Xrotation Yrotation Zrotation
		JOINT Spine1
		{
			OFFSET -0.002040 5.816851 0.032640
			CHANNELS 3 Xrotation Yrotation Zrotation
			JOINT Spine1_split
			{
				OFFSET -0.002040 5.816851 0.032640
				CHANNELS 3 Xrotation Yrotation Zrotation
				JOINT Spine2
				{
					OFFSET -0.002040 5.816851 0.032640
					CHANNELS 3 Xrotation Yrotation Zrotation
					JOINT Neck
					{
						OFFSET -0.003672 21.199554 -0.826883
						CHANNELS 3 Xrotation Yrotation Zrotation
						JOINT Head
						{
							OFFSET -0.000000 20.442154 4.834770
							CHANNELS 3 Xrotation Yrotation Zrotation
							JOINT HeadTop_End
							{
								OFFSET 0.000000 34.668427 4.968426
								CHANNELS 3 Xrotation Yrotation Zrotation
								End Site
								{
									OFFSET 0.000000 0.000000 0.000000
								}
							}
						}
					}
					JOINT LeftShoulder
					{
						OFFSET 3.288174 8.794213 -1.372251
						CHANNELS 3 Xrotation Yrotation Zrotation
						JOINT LeftShoulder_split
						{
							OFFSET 3.288174 8.794213 -1.372251
							CHANNELS 3 Xrotation Yrotation Zrotation
							JOINT LeftArm
							{
								OFFSET 11.953302 -2.279037 -0.146175
								CHANNELS 3 Xrotation Yrotation Zrotation
								JOINT LeftForeArm
								{
									OFFSET 18.448874 0.000061 -0.000024
									CHANNELS 3 Xrotation Yrotation Zrotation
									JOINT LeftHand
									{
										OFFSET 29.527794 0.000092 -0.000021
										CHANNELS 3 Xrotation Yrotation Zrotation
										JOINT LeftHandThumb1
										{
											OFFSET 10.739838 -2.369766 9.225297
											CHANNELS 3 Xrotation Yrotation Zrotation
											JOINT LeftHandThumb2
											{
												OFFSET 4.926178 -2.844101 2.844107
												CHANNELS 3 Xrotation Yrotation Zrotation
												JOINT LeftHandThumb3
												{
													OFFSET 4.614899 -2.664444 2.664389
													CHANNELS 3 Xrotation Yrotation Zrotation
													JOINT LeftHandThumb4
													{
														OFFSET 4.432472 -2.559052 2.559026
														CHANNELS 3 Xrotation Yrotation Zrotation
														End Site
														{
															OFFSET 0.000000 0.000000 0.000000
														}
													}
												}
											}
										}
										JOINT LeftHandIndex1
										{
											OFFSET 26.467659 0.187592 6.405249
											CHANNELS 3 Xrotation Yrotation Zrotation
											JOINT LeftHandIndex2
											{
												OFFSET 8.792877 0.000046 -0.000014
												CHANNELS 3 Xrotation Yrotation Zrotation
												JOINT LeftHandIndex3
												{
													OFFSET 10.075157 0.000031 -0.000014
													CHANNELS 3 Xrotation Yrotation Zrotation
													End Site
													{
														OFFSET 0.000000 0.000000 0.000000
													}
												}
											}
										}
										JOINT LeftHandMiddle1
										{
											OFFSET 25.764420 0.000076 -0.000063
											CHANNELS 3 Xrotation Yrotation Zrotation
											JOINT LeftHandMiddle2
											{
												OFFSET 9.368942 -0.468658 -0.500905
												CHANNELS 3 Xrotation Yrotation Zrotation
												JOINT LeftHandMiddle3
												{
													OFFSET 10.758461 -0.538101 0.000023
													CHANNELS 3 Xrotation Yrotation Zrotation
													End Site
													{
														OFFSET 0.000000 0.000000 0.000000
													}
												}
											}
										}
										JOINT LeftHandRing1
										{
											OFFSET 24.660912 0.144745 -6.225863
											CHANNELS 3 Xrotation Yrotation Zrotation
											JOINT LeftHandRing2
											{
												OFFSET 9.393806 0.000046 -0.000017
												CHANNELS 3 Xrotation Yrotation Zrotation
												JOINT LeftHandRing3
												{
													OFFSET 9.928528 -0.000015 -0.000007
													CHANNELS 3 Xrotation Yrotation Zrotation
													End Site
													{
														OFFSET 0.000000 0.000000 0.000000
													}
												}
											}
										}
										JOINT LeftHandPinky1
										{
											OFFSET 23.655312 0.125748 -12.815530
											CHANNELS 3 Xrotation Yrotation Zrotation
											JOINT LeftHandPinky2
											{
												OFFSET 8.425102 0.000031 -0.000015
												CHANNELS 3 Xrotation Yrotation Zrotation
												JOINT LeftHandPinky3
												{
													OFFSET 8.146988 0.000015 -0.000021
													CHANNELS 3 Xrotation Yrotation Zrotation
													End Site
													{
														OFFSET 0.000000 0.000000 0.000000
													}
												}
											}
										}
									}
								}
							}
						}
					}
					JOINT RightShoulder
					{
						OFFSET -3.249397 8.794213 -1.372251
						CHANNELS 3 Xrotation Yrotation Zrotation
						JOINT RightShoulder_split
						{
							OFFSET -3.249397 8.794213 -1.372251
							CHANNELS 3 Xrotation Yrotation Zrotation
							JOINT RightArm
							{
								OFFSET -11.953302 -2.279037 -0.146175
								CHANNELS 3 Xrotation Yrotation Zrotation
								JOINT RightForeArm
								{
									OFFSET -18.448874 0.000061 -0.000024
									CHANNELS 3 Xrotation Yrotation Zrotation
									JOINT RightHand
									{
										OFFSET -29.527794 0.000092 -0.000021
										CHANNELS 3 Xrotation Yrotation Zrotation
										JOINT RightHandThumb1
										{
											OFFSET -10.739838 -2.369766 9.225297
											CHANNELS 3 Xrotation Yrotation Zrotation
											JOINT RightHandThumb2
											{
												OFFSET -4.926178 -2.844101 2.844107
												CHANNELS 3 Xrotation Yrotation Zrotation
												JOINT RightHandThumb3
												{
													OFFSET -4.614899 -2.664444 2.664389
													CHANNELS 3 Xrotation Yrotation Zrotation
													JOINT RightHandThumb4
													{
														OFFSET -4.432472 -2.559052 2.559026
														CHANNELS 3 Xrotation Yrotation Zrotation
														End Site
														{
															OFFSET 0.000000 0.000000 0.000000
														}
													}
												}
											}
										}
										JOINT RightHandIndex1
										{
											OFFSET -26.467659 0.187592 6.405249
											CHANNELS 3 Xrotation Yrotation Zrotation
											JOINT RightHandIndex2
											{
												OFFSET -8.792877 0.000046 -0.000014
												CHANNELS 3 Xrotation Yrotation Zrotation
												JOINT RightHandIndex3
												{
													OFFSET -10.075157 0.000031 -0.000014
													CHANNELS 3 Xrotation Yrotation Zrotation
													End Site
													{
														OFFSET 0.000000 0.000000 0.000000
													}
												}
											}
										}
										JOINT RightHandMiddle1
										{
											OFFSET -25.764420 0.000076 -0.000063
											CHANNELS 3 Xrotation Yrotation Zrotation
											JOINT RightHandMiddle2
											{
												OFFSET -9.368942 -0.468658 -0.500905
												CHANNELS 3 Xrotation Yrotation Zrotation
												JOINT RightHandMiddle3
												{
													OFFSET -10.758461 -0.538101 0.000023
													CHANNELS 3 Xrotation Yrotation Zrotation
													End Site
													{
														OFFSET 0.000000 0.000000 0.000000
													}
												}
											}
										}
										JOINT RightHandRing1
										{
											OFFSET -24.660912 0.144745 -6.225863
											CHANNELS 3 Xrotation Yrotation Zrotation
											JOINT RightHandRing2
											{
												OFFSET -9.393806 0.000046 -0.000017
												CHANNELS 3 Xrotation Yrotation Zrotation
												JOINT RightHandRing3
												{
													OFFSET -9.928528 -0.000015 -0.000007
													CHANNELS 3 Xrotation Yrotation Zrotation
													End Site
													{
														OFFSET 0.000000 0.000000 0.000000
													}
												}
											}
										}
										JOINT RightHandPinky1
										{
											OFFSET -23.655312 0.125748 -12.815530
											CHANNELS 3 Xrotation Yrotation Zrotation
											JOINT RightHandPinky2
											{
												OFFSET -8.425102 0.000031 -0.000015
												CHANNELS 3 Xrotation Yrotation Zrotation
												JOINT RightHandPinky3
												{
													OFFSET -8.146980 0.000015 -0.000021
													CHANNELS 3 Xrotation Yrotation Zrotation
													End Site
													{
														OFFSET 0.000000 0.000000 0.000000
													}
												}
											}
										}
									}
								}
							}
						}
					}
				}
			}
		}
	}
	JOINT LeftUpLeg
	{
		OFFSET 11.394079 -6.187805 -0.413817
		CHANNELS 3 Xrotation Yrotation Zrotation
		JOINT LeftLeg
		{
			OFFSET 0.435522 -32.302582 3.732836
			CHANNELS 3 Xrotation Yrotation Zrotation
			JOINT LeftFoot
			{
				OFFSET -0.422448 -48.265030 -6.423308
				CHANNELS 3 Xrotation Yrotation Zrotation
				JOINT LeftToeBase
				{
					OFFSET 4.230914 -16.068172 23.438400
					CHANNELS 3 Xrotation Yrotation Zrotation
					JOINT LeftToe_End
					{
						OFFSET 4.510741 0.695408 19.974636
						CHANNELS 3 Xrotation Yrotation Zrotation
						End Site
						{
							OFFSET 0.000000 0.000000 0.000000
						}
					}
				}
			}
		}
	}
	JOINT RightUpLeg
	{
		OFFSET -11.333660 -6.187805 -0.413817
		CHANNELS 3 Xrotation Yrotation Zrotation
		JOINT RightLeg
		{
			OFFSET -0.425090 -32.302704 3.733010
			CHANNELS 3 Xrotation Yrotation Zrotation
			JOINT RightFoot
			{
				OFFSET 0.438313 -48.264862 -6.423481
				CHANNELS 3 Xrotation Yrotation Zrotation
				JOINT RightToeBase
				{
					OFFSET -4.230914 -16.068172 23.438402
					CHANNELS 3 Xrotation Yrotation Zrotation
					JOINT RightToe_End
					{
						OFFSET -4.510741 0.695407 19.974638
						CHANNELS 3 Xrotation Yrotation Zrotation
						End Site
						{
							OFFSET 0.000000 0.000000 0.000000
						}
					}
				}
			}
		}
	}
}
MOTION
Frames: 4
Frame Time: 0.016667
-2.260468 108.149429 7.545324 88.603973 9.755978 4.745664 2.339073 6.346527 -3.032826 5.204485 12.461947 -7.272588 0.000000 0.000000 0.000000 5.204487 12.461935 -7.272588 -13.925050 -2.201571 -7.202082 1.344855 -28.177998 -3.371375 -0.000000 0.000001 -0.000001 -0.946210 7.997302 -0.528430 0.000000 0.000000 0.000000 12.506741 -42.387222 10.138568 -24.046661 -115.712748 -11.703632 30.834746 18.188524 66.829644 -37.562140 -0.160948 -33.603824 4.863670 10.107243 4.702636 -0.000446 -0.000717 0.000065 0.000000 0.000002 -0.000001 7.034371 6.650703 -62.879937 -7.413585 3.403201 -38.731073 0.000001 0.000002 -0.000001 -0.296529 3.926978 -67.709530 -4.544146 4.636950 -40.584731 0.000002 0.000000 0.000002 3.260997 8.809216 -64.758642 -0.351998 -0.367212 -62.180594 -0.000000 -0.000001 -0.000001 7.661383 3.796278 -80.737549 1.270874 -6.500747 -36.494889 0.000000 -0.000001 -0.000007 3.795523 21.519184 -8.226293 0.000000 0.000000 0.000000 -77.521868 23.772175 41.544902 -0.003379 24.900833 -0.002957 3.339827 -4.278665 5.208143 -32.132048 0.517089 23.762498 3.572868 -9.530656 -1.637575 -0.000442 0.000730 -0.000057 -0.000001 0.000000 0.000002 3.617818 5.525139 -16.411018 -0.297612 -0.557793 17.207330 0.000002 -0.000000 0.000000 0.367020 -5.248941 -17.715948 -1.460273 -2.474932 22.115034 -0.000003 -0.000003 -0.000003 -6.463188 -22.500153 -6.573169 0.360487 2.864746 22.051433 0.000002 -0.000001 -0.000000 9.339005 -23.023014 23.602438 0.136124 5.937247 18.879676 -0.000000 -0.000000 -0.000000 -16.431695 -14.814484 7.888620 22.381184 8.128553 -0.338925 20.215362 -7.801961 -18.402490 -6.651854 -0.037728 0.077025 0.000000 -0.000000 -0.000000 -16.657361 -53.459990 -22.479624 12.143418 -0.170697 0.362254 17.408224 31.790771 20.449380 11.283718 -0.256438 0.499944 0.000001 0.000000 0.000001 
-2.261799 108.146927 7.476118 88.568538 9.830745 4.727268 2.336805 6.359237 -3.030449 5.197624 12.488355 -7.248141 0.000000 0.000000 0.000000 5.197629 12.488355 -7.248150 -13.955274 -2.219526 -7.151897 1.354286 -28.234284 -3.403390 0.000001 -0.000000 -0.000001 -0.954761 8.031870 -0.539177 0.000000 0.000000 0.000000 12.557307 -42.627426 10.258769 -24.177208 -115.539480 -11.785517 30.805652 18.092970 66.763378 -37.649352 -0.300732 -33.658660 4.827118 10.033774 4.726014 -0.000447 -0.000712 0.000062 0.000001 -0.000002 0.000004 6.928897 6.636218 -62.682681 -7.409480 3.399903 -38.662655 -0.000000 0.000001 0.000000 -0.352754 3.944419 -67.467366 -4.544679 4.636914 -40.595745 0.000001 -0.000000 -0.000001 3.224921 8.857664 -64.682329 -0.351401 -0.368125 -62.193449 -0.000001 -0.000000 -0.000005 7.580856 3.856770 -80.467907 1.269397 -6.497168 -36.459287 0.000000 0.000002 -0.000000 3.828874 21.676114 -8.271071 0.000000 0.000000 0.000000 -77.496023 23.745890 41.707211 -0.003250 25.159536 -0.003151 3.096331 -4.264940 5.455833 -31.962133 0.286067 24.045157 3.586774 -9.561989 -1.631303 -0.000443 0.000727 -0.000058 -0.000000 -0.000000 -0.000001 3.617891 5.420948 -16.593371 -0.301265 -0.550919 17.099570 0.000001 0.000003 0.000000 0.373590 -5.274413 -17.816492 -1.461225 -2.474852 22.132373 -0.000003 -0.000001 -0.000002 -6.398065 -22.430509 -6.230384 0.360567 2.869516 22.094634 -0.000001 0.000000 -0.000001 9.388927 -23.096546 23.701009 0.136649 5.938635 18.888808 0.000003 0.000002 0.000000 -16.310821 -14.735076 8.042488 22.153958 7.358684 -0.371896 20.000483 -7.529422 -19.043505 -6.834848 -0.038059 0.077399 0.000001 0.000000 -0.000000 -16.633471 -53.584388 -22.482765 12.214416 -0.175933 0.364023 17.428063 31.751183 20.556998 11.263132 -0.256309 0.499801 -0.000000 0.000001 -0.000003 
-2.257433 108.145119 7.409076 88.518418 9.931071 4.696048 2.336772 6.370976 -3.024317 5.194859 12.512802 -7.217790 0.000000 0.000000 0.000000 5.194857 12.512794 -7.217782 -14.001813 -2.230704 -7.110235 1.358247 -28.274085 -3.435008 -0.000001 0.000001 -0.000000 -0.964030 8.078127 -0.554996 0.000000 0.000000 0.000000 12.608497 -42.927623 10.374940 -24.345216 -115.348453 -11.904708 30.785869 17.990727 66.679346 -37.728421 -0.426743 -33.709497 4.789569 9.958243 4.750022 -0.000445 -0.000716 0.000062 -0.000001 -0.000001 0.000000 6.828004 6.620417 -62.499994 -7.404904 3.396270 -38.587003 -0.000000 -0.000002 0.000000 -0.408289 3.961310 -67.226991 -4.544894 4.636923 -40.599765 0.000000 -0.000001 0.000001 3.187718 8.906255 -64.599711 -0.351077 -0.368666 -62.200723 -0.000001 0.000000 0.000004 7.509986 3.913487 -80.210217 1.268136 -6.494170 -36.429275 -0.000002 -0.000000 -0.000003 3.867157 21.852222 -8.327362 0.000000 0.000000 0.000000 -77.474392 23.722371 41.892197 -0.003091 25.435005 -0.003352 2.870778 -4.250329 5.715904 -31.801525 0.079371 24.297268 3.600684 -9.593328 -1.625024 -0.000440 0.000727 -0.000055 0.000001 -0.000000 -0.000002 3.615585 5.328337 -16.748315 -0.301810 -0.545594 16.963711 0.000002 0.000003 0.000001 0.384886 -5.290188 -17.906400 -1.462675 -2.474549 22.155566 -0.000001 -0.000001 -0.000000 -6.333775 -22.357332 -5.891775 0.360674 2.874543 22.140391 -0.000001 -0.000002 -0.000000 9.434825 -23.180745 23.779613 0.135880 5.936634 18.873080 -0.000000 0.000001 0.000001 -16.176091 -14.652776 8.205412 21.908059 6.589888 -0.404011 19.790577 -7.261917 -19.653721 -7.039599 -0.038432 0.077813 0.000000 0.000000 -0.000000 -16.548133 -53.638097 -22.425797 12.267952 -0.181553 0.364967 17.361016 31.706906 20.729735 11.236684 -0.256177 0.499667 -0.000002 -0.000001 -0.000002 
-2.247764 108.143280 7.343480 88.446886 10.055948 4.651229 2.340776 6.381040 -3.013495 5.199916 12.533868 -7.180046 0.000000 0.000000 0.000000 5.199920 12.533867 -7.180046 -14.056925 -2.234074 -7.075659 1.342315 -28.280460 -3.466632 0.000001 0.000001 -0.000001 -0.973368 8.134287 -0.577482 0.000000 0.000000 0.000000 12.647911 -43.284213 10.471737 -24.541459 -115.143671 -12.052224 30.781760 17.885269 66.572857 -37.788571 -0.518631 -33.752473 4.753618 9.885653 4.773014 -0.000449 -0.000717 0.000061 0.000001 0.000000 -0.000001 6.738871 6.602714 -62.352770 -7.400168 3.392495 -38.508651 0.000000 -0.000001 -0.000001 -0.455252 3.976959 -66.996356 -4.544329 4.636925 -40.588208 -0.000000 -0.000000 -0.000002 3.149298 8.954910 -64.510495 -0.351643 -0.367791 -62.188285 0.000001 0.000000 0.000002 7.449345 3.960428 -79.992321 1.267033 -6.491520 -36.403033 0.000001 0.000000 0.000001 3.911029 22.045294 -8.396901 0.000000 0.000000 0.000000 -77.483196 23.678591 42.087711 -0.002913 25.710036 -0.003644 2.669604 -4.246462 5.944561 -31.667496 -0.037580 24.412237 3.614573 -9.624664 -1.618738 -0.000441 0.000728 -0.000057 -0.000000 0.000000 0.000001 3.597721 5.223894 -16.865395 -0.296093 -0.543374 16.771007 0.000001 0.000001 0.000005 0.402057 -5.302078 -18.060128 -1.464538 -2.474092 22.183356 -0.000001 -0.000000 -0.000001 -6.295481 -22.336225 -5.632481 0.360762 2.879444 22.184874 -0.000001 0.000001 0.000001 9.462222 -23.256296 23.814213 0.132574 5.928104 18.809453 -0.000000 -0.000001 0.000001 -16.019775 -14.572779 8.380445 21.647038 5.819183 -0.435540 19.579340 -7.008907 -20.248658 -7.261953 -0.038839 0.078271 -0.000000 -0.000000 0.000000 -16.379359 -53.617122 -22.298257 12.295686 -0.187693 0.364802 17.186206 31.647504 21.019711 11.206180 -0.256010 0.499522 0.000001 0.000001 -0.000000 
